<svg width="85" height="70" viewBox="0 0 85 70" fill="none" xmlns="http://www.w3.org/2000/svg">
<rect width="10" height="10" rx="5" fill="black" fill-opacity="0.1"/>
<rect x="15" width="10" height="10" rx="5" fill="black" fill-opacity="0.1"/>
<rect x="30" width="10" height="10" rx="5" fill="black" fill-opacity="0.1"/>
<rect x="45" width="10" height="10" rx="5" fill="black" fill-opacity="0.1"/>
<rect x="60" width="10" height="10" rx="5" fill="black" fill-opacity="0.1"/>
<rect x="75" width="10" height="10" rx="5" fill="black" fill-opacity="0.1"/>
<rect y="15" width="10" height="10" rx="5" fill="black" fill-opacity="0.1"/>
<rect x="15" y="15" width="10" height="10" rx="5" fill="black" fill-opacity="0.1"/>
<rect x="30" y="15" width="10" height="10" rx="5" fill="black" fill-opacity="0.1"/>
<rect x="45" y="15" width="10" height="10" rx="5" fill="black" fill-opacity="0.1"/>
<rect x="60" y="15" width="10" height="10" rx="5" fill="black" fill-opacity="0.1"/>
<rect x="75" y="15" width="10" height="10" rx="5" fill="black" fill-opacity="0.1"/>
<rect y="30" width="10" height="10" rx="5" fill="black" fill-opacity="0.1"/>
<rect x="15" y="30" width="10" height="10" rx="5" fill="black" fill-opacity="0.1"/>
<rect x="30" y="30" width="10" height="10" rx="5" fill="black" fill-opacity="0.1"/>
<rect x="45" y="30" width="10" height="10" rx="5" fill="black" fill-opacity="0.1"/>
<rect x="60" y="30" width="10" height="10" rx="5" fill="black" fill-opacity="0.1"/>
<rect x="75" y="30" width="10" height="10" rx="5" fill="black" fill-opacity="0.1"/>
<rect y="45" width="10" height="10" rx="5" fill="black" fill-opacity="0.1"/>
<rect x="15" y="45" width="10" height="10" rx="5" fill="black" fill-opacity="0.1"/>
<rect x="30" y="45" width="10" height="10" rx="5" fill="black" fill-opacity="0.1"/>
<rect x="45" y="45" width="10" height="10" rx="5" fill="black" fill-opacity="0.1"/>
<rect x="60" y="45" width="10" height="10" rx="5" fill="black" fill-opacity="0.1"/>
<rect x="75" y="45" width="10" height="10" rx="5" fill="black" fill-opacity="0.1"/>
<rect y="60" width="10" height="10" rx="5" fill="black" fill-opacity="0.1"/>
<rect x="15" y="60" width="10" height="10" rx="5" fill="black" fill-opacity="0.1"/>
<rect x="30" y="60" width="10" height="10" rx="5" fill="black" fill-opacity="0.1"/>
<rect x="45" y="60" width="10" height="10" rx="5" fill="black" fill-opacity="0.1"/>
<rect x="60" y="60" width="10" height="10" rx="5" fill="black" fill-opacity="0.1"/>
<rect x="75" y="60" width="10" height="10" rx="5" fill="black" fill-opacity="0.1"/>
</svg>
