<svg width="68" height="69" viewBox="0 0 68 69" fill="none" xmlns="http://www.w3.org/2000/svg">
<path d="M58.0524 9.97824C44.7862 -3.32608 23.2116 -3.32608 9.94538 9.97824C-3.31513 23.2826 -3.31513 44.9293 9.94538 58.2336C16.5785 64.8844 25.2894 68.2082 34.0004 68.2082C42.7114 68.2082 51.4193 64.8842 58.0524 58.2336C71.3159 44.9294 71.3159 23.2826 58.0524 9.97824ZM48.029 44.1588C49.1373 45.2705 49.1373 47.0676 48.029 48.1793C47.7661 48.4437 47.4537 48.6534 47.1098 48.7964C46.7659 48.9394 46.3972 49.0128 46.0249 49.0125C45.6526 49.0128 45.2839 48.9394 44.94 48.7964C44.596 48.6534 44.2836 48.4437 44.0207 48.1793L34.0002 38.125L23.9825 48.1764C23.4509 48.7095 22.7301 49.0092 21.9784 49.0095C21.6061 49.0099 21.2374 48.9364 20.8935 48.7934C20.5495 48.6505 20.2372 48.4408 19.9742 48.1764C18.8659 47.0646 18.8659 45.2648 19.9742 44.1558L29.9919 34.1045L19.9714 24.0531C18.8631 22.9414 18.8631 21.1415 19.9714 20.0326C21.077 18.9208 22.8713 18.9208 23.9796 20.0326L34.0001 30.0839L44.0206 20.0326C45.1289 18.9208 46.9204 18.9208 48.0288 20.0326C49.1371 21.1415 49.1371 22.9414 48.0288 24.0531L38.0083 34.1045L48.029 44.1588Z" fill="url(#paint0_linear_144_2127)"/>
<defs>
<linearGradient id="paint0_linear_144_2127" x1="34" y1="0" x2="34" y2="68.2082" gradientUnits="userSpaceOnUse">
<stop stop-color="#D9305B"/>
<stop offset="1" stop-color="#7E2784"/>
</linearGradient>
</defs>
</svg>
