<svg width="21" height="19" viewBox="0 0 21 19" fill="none" xmlns="http://www.w3.org/2000/svg">
<path fill-rule="evenodd" clip-rule="evenodd" d="M8.84146 18.0772C3.96435 18.0772 0 14.1124 0 9.23575C0 4.35911 3.96435 0.394287 8.84146 0.394287C11.2965 0.394287 13.5854 1.37291 15.2778 3.16407C15.3144 3.20104 15.3367 3.24987 15.3406 3.30178C15.3445 3.3537 15.3297 3.40529 15.2989 3.4473L15.8179 4.12575C15.9167 4.07494 16.0456 4.08576 16.1237 4.2095C17.1522 5.68543 17.6829 7.42765 17.6829 9.23528C17.6829 14.1124 13.7186 18.0772 8.84146 18.0772ZM8.84146 16.2522C4.97638 16.2522 1.82456 13.1004 1.82456 9.23575C1.82456 5.37114 4.97638 2.21838 8.84146 2.21838C10.6825 2.21838 12.4242 2.93164 13.7346 4.20856C13.7565 4.22761 13.7745 4.25083 13.7874 4.27685C13.8003 4.30288 13.808 4.33121 13.8099 4.36021C13.8118 4.38921 13.808 4.4183 13.7986 4.44581C13.7892 4.47332 13.7745 4.4987 13.7553 4.52049L14.4121 5.33585C14.5123 5.27704 14.6511 5.28269 14.7301 5.40313C17.7121 9.94149 14.4761 16.2522 8.84146 16.2522Z" fill="url(#paint0_linear_47_3479)"/>
<path fill-rule="evenodd" clip-rule="evenodd" d="M9.07396 13.7807C9.02725 13.78 8.9818 13.7655 8.94336 13.7389C8.90492 13.7124 8.87522 13.675 8.85801 13.6316C8.84154 13.5986 7.41501 9.91565 5.20888 8.52205C4.77744 8.25669 4.44574 7.97487 4.57842 7.34441C4.7111 6.73089 5.1256 6.38226 5.87227 6.21665C7.19906 5.93435 8.62606 7.99134 9.1563 8.83728C11.0147 6.13384 14.7302 1.88719 20.138 1.38941C20.3987 1.35883 20.4956 1.74557 20.2542 1.85379C20.1714 1.88672 12.4413 5.4201 9.30591 13.648C9.28248 13.6887 9.24865 13.7225 9.20789 13.7458C9.16714 13.7691 9.12091 13.7812 9.07396 13.7807Z" fill="url(#paint1_linear_47_3479)"/>
<defs>
<linearGradient id="paint0_linear_47_3479" x1="8.84146" y1="0.394287" x2="8.84146" y2="18.0772" gradientUnits="userSpaceOnUse">
<stop stop-color="#387858"/>
<stop offset="1" stop-color="#D0D370"/>
</linearGradient>
<linearGradient id="paint1_linear_47_3479" x1="12.4707" y1="1.3877" x2="12.4707" y2="13.7807" gradientUnits="userSpaceOnUse">
<stop stop-color="#387858"/>
<stop offset="1" stop-color="#D0D370"/>
</linearGradient>
</defs>
</svg>
