<svg width="21" height="18" viewBox="0 0 21 18" fill="none" xmlns="http://www.w3.org/2000/svg">
<path fill-rule="evenodd" clip-rule="evenodd" d="M8.84146 17.8411C3.96435 17.8411 0 13.8763 0 8.99967C0 4.12303 3.96435 0.158203 8.84146 0.158203C11.2965 0.158203 13.5854 1.13682 15.2778 2.92798C15.3144 2.96495 15.3367 3.01378 15.3406 3.0657C15.3445 3.11761 15.3297 3.16921 15.2989 3.21122L15.8179 3.88967C15.9167 3.83885 16.0456 3.84967 16.1237 3.97341C17.1522 5.44934 17.6829 7.19157 17.6829 8.9992C17.6829 13.8763 13.7186 17.8411 8.84146 17.8411ZM8.84146 16.0161C4.97638 16.0161 1.82456 12.8643 1.82456 8.99967C1.82456 5.13505 4.97638 1.9823 8.84146 1.9823C10.6825 1.9823 12.4242 2.69556 13.7346 3.97247C13.7565 3.99153 13.7745 4.01474 13.7874 4.04077C13.8003 4.0668 13.808 4.09513 13.8099 4.12413C13.8118 4.15313 13.808 4.18222 13.7986 4.20973C13.7892 4.23724 13.7745 4.26262 13.7553 4.28441L14.4121 5.09977C14.5123 5.04096 14.6511 5.0466 14.7301 5.16705C17.7121 9.7054 14.4761 16.0161 8.84146 16.0161Z" fill="url(#paint0_linear_26_1688)"/>
<path fill-rule="evenodd" clip-rule="evenodd" d="M9.07396 13.5444C9.02725 13.5437 8.9818 13.5291 8.94336 13.5026C8.90492 13.476 8.87522 13.4387 8.85801 13.3953C8.84154 13.3623 7.41501 9.67932 5.20888 8.28572C4.77744 8.02037 4.44574 7.73854 4.57842 7.10809C4.7111 6.49457 5.1256 6.14593 5.87227 5.98032C7.19906 5.69802 8.62606 7.75501 9.1563 8.60095C11.0147 5.89751 14.7302 1.65086 20.138 1.15308C20.3987 1.1225 20.4956 1.50925 20.2542 1.61746C20.1714 1.65039 12.4413 5.18378 9.30591 13.4117C9.28248 13.4524 9.24865 13.4861 9.20789 13.5095C9.16714 13.5328 9.12091 13.5448 9.07396 13.5444Z" fill="url(#paint1_linear_26_1688)"/>
<defs>
<linearGradient id="paint0_linear_26_1688" x1="8.84146" y1="0.158203" x2="8.84146" y2="17.8411" gradientUnits="userSpaceOnUse">
<stop stop-color="#387858"/>
<stop offset="1" stop-color="#D0D370"/>
</linearGradient>
<linearGradient id="paint1_linear_26_1688" x1="12.4707" y1="1.15137" x2="12.4707" y2="13.5444" gradientUnits="userSpaceOnUse">
<stop stop-color="#387858"/>
<stop offset="1" stop-color="#D0D370"/>
</linearGradient>
</defs>
</svg>
