<svg width="54" height="54" viewBox="0 0 54 54" fill="none" xmlns="http://www.w3.org/2000/svg">
<circle cx="27" cy="27" r="27" fill="url(#paint0_linear_61_1186)"/>
<path d="M36.6972 37.7196C36.7947 37.8171 36.8495 37.9493 36.8495 38.0872C36.8495 38.225 36.7947 38.3572 36.6972 38.4547C34.5703 40.5816 31.8829 41.9661 28.9256 42.4587C28.1374 42.5902 27.3398 42.6564 26.5408 42.6567C24.8742 42.6567 23.2258 42.3656 21.6558 41.7935L22.0896 42.4088C22.1292 42.4645 22.1573 42.5276 22.1725 42.5943C22.1877 42.661 22.1895 42.73 22.178 42.7974C22.1664 42.8648 22.1416 42.9292 22.1051 42.9871C22.0686 43.0449 22.021 43.0949 21.9651 43.1343C21.9092 43.1737 21.8461 43.2017 21.7794 43.2167C21.7127 43.2317 21.6436 43.2333 21.5763 43.2216C21.5089 43.2098 21.4445 43.1849 21.3868 43.1482C21.3291 43.1115 21.2792 43.0638 21.2399 43.0078L19.7285 40.8643C19.6794 40.7947 19.6481 40.714 19.6375 40.6294C19.6269 40.5449 19.6372 40.459 19.6676 40.3794C19.698 40.2998 19.7475 40.2288 19.8118 40.1729C19.876 40.1169 19.9531 40.0776 20.0361 40.0584L22.348 39.5233C22.4823 39.4922 22.6235 39.5158 22.7405 39.5887C22.8574 39.6617 22.9406 39.7782 22.9717 39.9125C23.0028 40.0468 22.9792 40.188 22.9062 40.3049C22.8332 40.4219 22.7168 40.5051 22.5825 40.5362L21.7671 40.7248C26.6346 42.6014 32.2336 41.4482 35.962 37.7196C36.0595 37.6221 36.1918 37.5674 36.3296 37.5674C36.4675 37.5674 36.5997 37.6222 36.6972 37.7196ZM30.0001 15.4693C35.0934 16.834 38.8915 21.1061 39.7002 26.2598L39.1291 25.6481C39.0349 25.5476 38.9048 25.4886 38.7672 25.484C38.6295 25.4794 38.4957 25.5296 38.3951 25.6235C38.2944 25.7175 38.2351 25.8475 38.2303 25.9852C38.2254 26.1228 38.2754 26.2567 38.3691 26.3575L39.9885 28.0921C40.0466 28.1544 40.1192 28.2015 40.1998 28.2291C40.2804 28.2568 40.3666 28.2642 40.4508 28.2507C40.5349 28.2372 40.6145 28.2032 40.6824 28.1517C40.7503 28.1003 40.8045 28.0329 40.8403 27.9555L41.9409 25.5748C41.9988 25.4497 42.0045 25.3067 41.957 25.1773C41.9094 25.0479 41.8124 24.9427 41.6873 24.8849C41.6253 24.8562 41.5583 24.84 41.4901 24.8373C41.4219 24.8345 41.3538 24.8452 41.2897 24.8688C41.2256 24.8923 41.1668 24.9283 41.1167 24.9746C41.0665 25.0209 41.0259 25.0766 40.9973 25.1386L40.6818 25.8211C40.2542 23.3925 39.2099 21.1224 37.6225 19.1936C35.7173 16.8787 33.1745 15.2436 30.2691 14.4651C30.1359 14.4295 29.994 14.4482 29.8747 14.5171C29.7553 14.586 29.6682 14.6995 29.6324 14.8327C29.5968 14.9659 29.6155 15.1077 29.6845 15.2271C29.7534 15.3465 29.8669 15.4336 30.0001 15.4693ZM13.2093 32.4122C13.289 32.4122 13.3677 32.3939 13.4393 32.3587C13.5108 32.3234 13.5733 32.2722 13.6219 32.2089C13.6705 32.1456 13.7038 32.072 13.7194 31.9938C13.735 31.9156 13.7323 31.8348 13.7117 31.7577C12.3469 26.6645 14.1476 21.2391 18.2065 17.9619L17.9623 18.7624C17.924 18.8936 17.939 19.0347 18.004 19.155C18.069 19.2753 18.1788 19.3651 18.3096 19.4051C18.4403 19.445 18.5816 19.4317 18.7027 19.3682C18.8238 19.3048 18.915 19.1961 18.9565 19.0658L19.6491 16.7961C19.674 16.7146 19.6784 16.6282 19.6621 16.5446C19.6457 16.4609 19.609 16.3826 19.5553 16.3165C19.5015 16.2503 19.4323 16.1984 19.3538 16.1654C19.2753 16.1323 19.1898 16.119 19.1049 16.1267L16.4929 16.3638C16.4249 16.37 16.3588 16.3895 16.2984 16.4212C16.2379 16.453 16.1843 16.4963 16.1406 16.5487C16.0969 16.6011 16.064 16.6617 16.0437 16.7268C16.0234 16.792 16.0161 16.8605 16.0223 16.9285C16.0481 17.2144 16.3008 17.4248 16.5869 17.3992L17.3356 17.3312C15.4462 18.9158 14.0024 20.9552 13.1257 23.2943C12.0735 26.1018 11.9288 29.1214 12.7074 32.0268C12.737 32.1373 12.8023 32.2349 12.893 32.3046C12.9837 32.3742 13.0949 32.4121 13.2093 32.4122ZM21.4222 14.2211C21.4222 12.4449 22.8672 11 24.6433 11C26.4194 11 27.8644 12.445 27.8644 14.2211C27.8644 15.9973 26.4194 17.4423 24.6433 17.4423C22.8672 17.4423 21.4222 15.9973 21.4222 14.2211ZM22.4618 14.2211C22.4618 15.424 23.4405 16.4026 24.6433 16.4026C25.8461 16.4026 26.8248 15.424 26.8248 14.2211C26.8248 13.0182 25.8462 12.0396 24.6433 12.0396C23.4404 12.0396 22.4618 13.0182 22.4618 14.2211ZM22.6047 28.3155C22.6047 26.1357 24.3781 24.3623 26.558 24.3623C28.7378 24.3623 30.5112 26.1357 30.5112 28.3155C30.5112 30.4953 28.7378 32.2687 26.558 32.2687C24.3781 32.2687 22.6047 30.4953 22.6047 28.3155ZM23.6444 28.3155C23.6444 29.9221 24.9514 31.2291 26.558 31.2291C28.1646 31.2291 29.4716 29.922 29.4716 28.3155C29.4716 26.709 28.1646 25.4019 26.558 25.4019C24.9514 25.4019 23.6444 26.709 23.6444 28.3155ZM20.0539 26.478C20.1976 25.9686 20.401 25.4781 20.6598 25.0165L20.2436 24.0794C20.2009 23.9834 20.1884 23.8767 20.2076 23.7734C20.2267 23.6702 20.2768 23.5751 20.351 23.5008L21.7432 22.1087C21.8174 22.0344 21.9125 21.9844 22.0158 21.9652C22.119 21.946 22.2257 21.9586 22.3217 22.0012L23.2585 22.4173C23.7202 22.1583 24.211 21.9548 24.7205 21.8112L25.0885 20.8553C25.1262 20.7572 25.1927 20.6729 25.2793 20.6135C25.3659 20.554 25.4685 20.5222 25.5736 20.5222H27.5423C27.6473 20.5222 27.7499 20.554 27.8365 20.6135C27.9231 20.6729 27.9897 20.7572 28.0274 20.8553L28.3955 21.8116C28.9048 21.9552 29.3954 22.1586 29.8569 22.4175L30.7941 22.0012C30.8902 21.9586 30.9968 21.9461 31.1001 21.9653C31.2034 21.9845 31.2984 22.0345 31.3727 22.1088L32.7648 23.5008C32.8391 23.5751 32.8891 23.6702 32.9083 23.7734C32.9275 23.8767 32.9149 23.9834 32.8723 24.0794L32.4562 25.0161C32.7152 25.4778 32.9186 25.9686 33.0623 26.4781L34.0183 26.8461C34.1163 26.8838 34.2006 26.9504 34.2601 27.037C34.3195 27.1236 34.3513 27.2261 34.3513 27.3312V29.2999C34.3513 29.4049 34.3195 29.5075 34.2601 29.5941C34.2006 29.6807 34.1163 29.7473 34.0183 29.785L33.0621 30.153C32.9184 30.6624 32.715 31.1531 32.4561 31.6147L32.8723 32.5516C32.9149 32.6476 32.9275 32.7543 32.9083 32.8576C32.8891 32.9608 32.8391 33.0559 32.7648 33.1302L31.3727 34.5223C31.2984 34.5966 31.2034 34.6466 31.1001 34.6658C30.9968 34.685 30.8902 34.6725 30.7941 34.6298L29.8569 34.2136C29.3954 34.4725 28.9048 34.6759 28.3955 34.8195L28.0274 35.7758C27.9897 35.8738 27.9231 35.9581 27.8365 36.0176C27.7499 36.077 27.6473 36.1089 27.5423 36.1089H25.5736C25.4685 36.1089 25.3659 36.077 25.2793 36.0176C25.1927 35.9581 25.1262 35.8738 25.0885 35.7758L24.7204 34.8195C24.2111 34.6759 23.7205 34.4725 23.259 34.2136L22.3218 34.6298C22.2258 34.6724 22.1191 34.685 22.0159 34.6658C21.9126 34.6466 21.8176 34.5966 21.7433 34.5223L20.3511 33.1302C20.2768 33.0559 20.2268 32.9609 20.2076 32.8576C20.1884 32.7543 20.2009 32.6476 20.2436 32.5516L20.6596 31.6149C20.4006 31.1532 20.1972 30.6624 20.0536 30.1529L19.0976 29.7849C18.9996 29.7472 18.9153 29.6806 18.8558 29.594C18.7963 29.5074 18.7645 29.4049 18.7645 29.2998V27.3311C18.7645 27.2261 18.7963 27.1235 18.8558 27.0369C18.9153 26.9503 18.9996 26.8837 19.0976 26.846L20.0539 26.478ZM19.8041 27.6881V28.943L20.6761 29.2786C20.7549 29.309 20.8251 29.358 20.8807 29.4216C20.9363 29.4851 20.9755 29.5613 20.995 29.6434C21.135 30.232 21.3682 30.7944 21.6857 31.3093C21.7299 31.3812 21.756 31.4628 21.7617 31.5471C21.7674 31.6314 21.7524 31.7157 21.7181 31.7929L21.3386 32.6475L22.2259 33.5349L23.081 33.1552C23.1581 33.1209 23.2425 33.106 23.3267 33.1116C23.411 33.1173 23.4926 33.1434 23.5644 33.1877C24.0793 33.5051 24.6416 33.7382 25.23 33.8782C25.3121 33.8977 25.3882 33.937 25.4518 33.9926C25.5153 34.0481 25.5644 34.1184 25.5947 34.1971L25.9304 35.0694H27.1852L27.521 34.1971C27.5514 34.1184 27.6004 34.0482 27.664 33.9926C27.7275 33.937 27.8036 33.8977 27.8857 33.8782C28.4742 33.7382 29.0364 33.5051 29.5513 33.1877C29.6232 33.1434 29.7048 33.1173 29.789 33.1117C29.8732 33.106 29.9576 33.1209 30.0348 33.1552L30.8898 33.5349L31.7771 32.6475L31.3974 31.7927C31.3631 31.7155 31.3482 31.6311 31.3538 31.5469C31.3595 31.4626 31.3856 31.381 31.4299 31.3091C31.7473 30.7942 31.9804 30.2319 32.1204 29.6435C32.14 29.5614 32.1792 29.4852 32.2348 29.4217C32.2903 29.3581 32.3606 29.3091 32.4393 29.2788L33.3115 28.943V27.6881L32.4395 27.3524C32.3607 27.3221 32.2905 27.273 32.235 27.2095C32.1794 27.1459 32.1402 27.0698 32.1206 26.9876C31.9807 26.3991 31.7475 25.8367 31.4299 25.3218C31.3856 25.2499 31.3595 25.1683 31.3539 25.084C31.3482 24.9997 31.3632 24.9154 31.3974 24.8382L31.7771 23.9835L30.8898 23.0962L30.0348 23.4759C29.9576 23.5102 29.8733 23.5251 29.789 23.5195C29.7048 23.5138 29.6232 23.4878 29.5513 23.4435C29.0364 23.1261 28.4742 22.893 27.8858 22.753C27.8037 22.7335 27.7275 22.6942 27.664 22.6386C27.6004 22.5831 27.5514 22.5128 27.521 22.4341L27.1852 21.5617H25.9304L25.5948 22.4337C25.5644 22.5125 25.5154 22.5828 25.4518 22.6383C25.3883 22.6939 25.3121 22.7332 25.23 22.7527C24.6414 22.8927 24.079 23.1258 23.5641 23.4433C23.4922 23.4876 23.4106 23.5137 23.3263 23.5193C23.242 23.525 23.1577 23.51 23.0805 23.4757L22.2259 23.0962L21.3386 23.9835L21.7183 24.8384C21.7526 24.9156 21.7675 25 21.7619 25.0842C21.7562 25.1685 21.7302 25.2501 21.6859 25.322C21.3685 25.8368 21.1354 26.3991 20.9954 26.9875C20.9758 27.0696 20.9366 27.1457 20.881 27.2092C20.8254 27.2728 20.7552 27.3218 20.6764 27.3522L19.8041 27.6881ZM26.5888 29.425C26.356 29.4306 26.0641 29.3438 25.9987 29.0816C25.9654 28.9479 25.8802 28.8328 25.7621 28.7618C25.6439 28.6908 25.5023 28.6697 25.3686 28.703C25.2348 28.7364 25.1198 28.8215 25.0488 28.9397C24.9778 29.0578 24.9566 29.1994 24.99 29.3332C25.1193 29.8517 25.5147 30.2363 26.0382 30.3906V30.4136C26.0382 30.5514 26.0929 30.6837 26.1904 30.7811C26.2879 30.8786 26.4201 30.9334 26.558 30.9334C26.6958 30.9334 26.828 30.8786 26.9255 30.7811C27.023 30.6837 27.0778 30.5514 27.0778 30.4136V30.4C27.3971 30.3168 27.6745 30.1571 27.8612 29.9413C28.0799 29.6883 28.1735 29.3729 28.1317 29.0291C28.0501 28.3558 27.55 27.9392 26.6452 27.7907C26.3058 27.7349 26.1305 27.6407 26.1241 27.5105C26.1143 27.3078 26.3493 27.2386 26.4216 27.2222C26.5955 27.1828 26.9244 27.1991 27.0548 27.5096C27.0809 27.573 27.1193 27.6306 27.1677 27.6791C27.2162 27.7277 27.2738 27.7661 27.3372 27.7923C27.4005 27.8184 27.4685 27.8318 27.537 27.8316C27.6056 27.8314 27.6735 27.8176 27.7367 27.791C27.7999 27.7645 27.8573 27.7257 27.9054 27.6769C27.9536 27.6281 27.9916 27.5702 28.0173 27.5067C28.0431 27.4431 28.0559 27.3751 28.0552 27.3065C28.0545 27.2379 28.0403 27.1702 28.0133 27.1071C27.8349 26.6821 27.492 26.379 27.0778 26.2438V26.2175C27.0778 26.0797 27.023 25.9475 26.9255 25.85C26.828 25.7525 26.6958 25.6977 26.558 25.6977C26.4201 25.6977 26.2879 25.7525 26.1904 25.85C26.0929 25.9475 26.0382 26.0797 26.0382 26.2175V26.2508C25.4337 26.4487 25.0565 26.9587 25.0858 27.5609C25.1046 27.9477 25.3102 28.625 26.4768 28.8166C27.0706 28.9141 27.091 29.0824 27.0997 29.1543C27.1074 29.2176 27.0923 29.241 27.0748 29.2612C27.008 29.3384 26.8197 29.4194 26.5888 29.425ZM19.5396 38.4862C19.5886 38.5649 19.6156 38.6552 19.618 38.7479C19.6203 38.8406 19.5978 38.9323 19.5528 39.0133C19.5078 39.0944 19.442 39.162 19.3621 39.209C19.2822 39.2561 19.1912 39.2809 19.0984 39.2809H11.5198C11.4271 39.2809 11.336 39.2561 11.2561 39.2091C11.1762 39.162 11.1103 39.0945 11.0653 39.0134C11.0203 38.9323 10.9978 38.8407 11.0002 38.7479C11.0025 38.6552 11.0296 38.5649 11.0787 38.4862L14.868 32.4067C14.9147 32.3318 14.9797 32.27 15.0568 32.2272C15.134 32.1844 15.2208 32.1619 15.3091 32.1619C15.3974 32.1619 15.4842 32.1844 15.5613 32.2272C15.6385 32.27 15.7035 32.3318 15.7502 32.4067L19.5396 38.4862ZM18.1619 38.2413L15.3092 33.6643L12.4564 38.2413H18.1619ZM42.8968 31.0492V36.3602C42.8968 36.4981 42.842 36.6303 42.7446 36.7278C42.6471 36.8252 42.5149 36.88 42.377 36.88H37.066C36.9281 36.88 36.7959 36.8252 36.6984 36.7278C36.6009 36.6303 36.5462 36.4981 36.5462 36.3602V31.0492C36.5462 30.9113 36.6009 30.7791 36.6984 30.6816C36.7959 30.5841 36.9281 30.5294 37.066 30.5294H42.377C42.5149 30.5294 42.6471 30.5841 42.7446 30.6816C42.842 30.7791 42.8968 30.9113 42.8968 31.0492ZM41.8572 31.569H37.5858V35.8404H41.8572V31.569Z" fill="white"/>
<defs>
<linearGradient id="paint0_linear_61_1186" x1="27" y1="0" x2="27" y2="54" gradientUnits="userSpaceOnUse">
<stop stop-color="#D9305B"/>
<stop offset="1" stop-color="#7E2784"/>
</linearGradient>
</defs>
</svg>
