<svg width="9" height="6" viewBox="0 0 9 6" fill="none" xmlns="http://www.w3.org/2000/svg">
<path fill-rule="evenodd" clip-rule="evenodd" d="M8.2799 0.96C8.34676 0.870858 8.38747 0.76486 8.39748 0.653883C8.40748 0.542906 8.38639 0.431335 8.33656 0.331672C8.28673 0.232008 8.21013 0.14819 8.11534 0.0896095C8.02056 0.0310288 7.91133 -2.13562e-08 7.7999 -2.62268e-08L0.599903 -3.40949e-07C0.488476 -3.45819e-07 0.37925 0.0310284 0.284464 0.0896092C0.189678 0.14819 0.113079 0.232008 0.0632467 0.331671C0.0134153 0.431335 -0.00767996 0.542906 0.00232694 0.653883C0.0123338 0.76486 0.0530471 0.870858 0.119904 0.96L3.7199 5.76C3.77579 5.83452 3.84826 5.895 3.93157 5.93666C4.01489 5.97831 4.10675 6 4.1999 6C4.29305 6 4.38492 5.97831 4.46823 5.93666C4.55154 5.895 4.62401 5.83452 4.6799 5.76L8.2799 0.96Z" fill="url(#paint0_linear_26_2413)"/>
<defs>
<linearGradient id="paint0_linear_26_2413" x1="8.3999" y1="3" x2="-9.83596e-05" y2="3" gradientUnits="userSpaceOnUse">
<stop stop-color="#D9305B"/>
<stop offset="1" stop-color="#7E2784"/>
</linearGradient>
</defs>
</svg>
