<svg width="72" height="61" viewBox="0 0 72 61" fill="none" xmlns="http://www.w3.org/2000/svg">
<path d="M30.7873 10.7923V21.5846L25.1674 18.7692C22.0764 17.2677 19.1728 15.9539 18.6108 15.9539C16.4565 15.9539 17.9552 18.8631 21.9828 22.4292C24.8864 24.9631 25.9167 26.3708 25.0737 26.6523C24.3244 26.9339 18.7982 28.4354 12.6163 29.937C1.0955 32.7523 -1.24613 33.9723 0.533509 35.7554C1.18916 36.4123 5.68508 36.1308 15.7073 34.6292C23.5751 33.5031 30.2253 32.8462 30.5063 33.1277C30.7873 33.5031 29.195 36.7877 27.0407 40.5415C24.7927 44.2954 22.9194 47.6739 22.7321 47.9554C22.5448 48.3308 23.0131 49.0816 23.6688 49.6446C24.7927 50.5831 25.7294 50.1138 28.7267 47.4862C30.7873 45.6092 32.8479 44.1077 33.3162 44.1077C33.7846 44.1077 34.7212 46.9231 35.4705 50.3954C37.0629 58.4662 38.1868 61 40.2475 61C42.7764 61 43.2448 58.0908 42.4954 47.2984C42.1208 41.8554 42.1208 37.5385 42.5891 37.5385C43.0574 37.5385 46.804 39.04 50.9253 40.8231C59.0741 44.3892 61.6967 44.8585 61.6967 42.7938C61.6967 40.917 60.1981 39.6031 52.9859 34.6292C49.5203 32.3769 46.7103 30.2185 46.7103 29.937C46.7103 29.6554 51.4872 28.06 57.2945 26.3708C67.6913 23.3677 72 21.3969 72 19.7077C72 18.3 66.099 18.5815 56.7325 20.2708C52.2366 21.1154 48.2089 21.5846 47.9279 21.2093C47.647 20.9277 48.3027 18.4877 49.4266 15.86C53.6416 5.63077 51.0189 4.6923 44.4624 14.1708C42.0271 17.8308 39.5918 20.4585 39.2171 19.9892C38.8425 19.6139 37.8121 15.86 36.8755 11.7308C35.0022 2.90923 33.7846 0 32.005 0C31.0683 0 30.7873 2.44 30.7873 10.7923Z" fill="white"/>
</svg>
