<svg width="106" height="91" viewBox="0 0 106 91" fill="none" xmlns="http://www.w3.org/2000/svg">
<path d="M46.1809 16.1V32.2L37.7511 28C33.1146 25.76 28.7593 23.8 27.9163 23.8C24.6848 23.8 26.9328 28.14 32.9742 33.46C37.3296 37.24 38.8751 39.34 37.6106 39.76C36.4866 40.18 28.1973 42.42 18.9245 44.66C1.64325 48.86 -1.86919 50.68 0.800263 53.34C1.78375 54.32 8.52762 53.9 23.5609 51.66C35.3627 49.98 45.3379 49 45.7594 49.42C46.1809 49.98 43.7925 54.88 40.561 60.48C37.1891 66.08 34.3791 71.12 34.0982 71.54C33.8172 72.1 34.5197 73.22 35.5031 74.06C37.1891 75.46 38.594 74.76 43.09 70.84C46.1809 68.04 49.2719 65.8 49.9743 65.8C50.6769 65.8 52.0818 70 53.2058 75.18C55.5943 87.22 57.2803 91 60.3712 91C64.1646 91 64.8671 86.66 63.7431 70.56C63.1812 62.44 63.1812 56 63.8836 56C64.5861 56 70.2059 58.24 76.3879 60.9C88.6111 66.22 92.545 66.92 92.545 63.84C92.545 61.04 90.2971 59.08 79.4788 51.66C74.2804 48.3 70.0655 45.08 70.0655 44.66C70.0655 44.24 77.2309 41.86 85.9417 39.34C101.537 34.86 108 31.92 108 29.4C108 27.3 99.1485 27.72 85.0987 30.24C78.3549 31.5 72.3134 32.2 71.8919 31.64C71.4704 31.22 72.454 27.58 74.1399 23.66C80.4623 8.4 76.5283 6.99999 66.6936 21.14C63.0406 26.6 59.3877 30.52 58.8257 29.82C58.2637 29.26 56.7182 23.66 55.3133 17.5C52.5033 4.34 50.6768 0 48.0074 0C46.6024 0 46.1809 3.64 46.1809 16.1Z" fill="url(#paint0_linear_61_895)"/>
<defs>
<linearGradient id="paint0_linear_61_895" x1="54" y1="0" x2="54" y2="91" gradientUnits="userSpaceOnUse">
<stop stop-color="#D9305B"/>
<stop offset="1" stop-color="#7E2784"/>
</linearGradient>
</defs>
</svg>
