<svg width="54" height="54" viewBox="0 0 54 54" fill="none" xmlns="http://www.w3.org/2000/svg">
<circle cx="27" cy="27" r="27" fill="url(#paint0_linear_61_1196)"/>
<path d="M46 23.9355H44.6227L42.57 25.0156C42.3391 24.8881 42.0987 24.78 41.8395 24.7151L39.2575 24.0689V23.7754C40.3997 22.9781 41.0968 21.6611 41.0968 20.2581V19.1867C41.0968 16.8057 39.2311 14.8132 36.9381 14.7437C36.8217 14.7407 36.7071 14.7449 36.5919 14.7506L37.2613 13.1833L34.0158 9.93869L32.1026 11.184C31.3787 10.7759 30.6084 10.4564 29.8083 10.2323L29.3358 8H24.6648L24.1923 10.2329C23.3921 10.4569 22.6218 10.7764 21.898 11.1845L19.9849 9.93923L16.7419 13.1822L17.4 14.7506C17.3749 14.7494 17.351 14.7449 17.3259 14.7443C16.1521 14.7102 15.0466 15.1385 14.2069 15.9536C13.3659 16.7683 12.9032 17.8616 12.9032 19.0323V20.2581C12.9032 21.6611 13.5996 22.9775 14.7419 23.7747V24.0689L13.0577 24.49L10.0048 22.7097H8V35.4098L14.0297 37.4194H15.204L15.3506 36.9058L17.1989 38.0152C17.2292 39.0202 18.0351 39.8288 19.0392 39.8641C19.0744 40.8639 19.8781 41.6675 20.8779 41.7028C20.9131 42.7026 21.7168 43.5063 22.7166 43.5415C22.753 44.5647 23.591 45.3871 24.6226 45.3871C25.0057 45.3871 25.3812 45.2677 25.697 45.0549L26.2398 45.5343C26.5806 45.8344 27.0191 46 27.4732 46H27.5865C28.6065 46 29.4364 45.1755 29.4492 44.1589C30.4581 44.146 31.2751 43.329 31.2879 42.3202C32.2974 42.3073 33.1149 41.4891 33.1267 40.4797C34.1454 40.4558 34.9677 39.6235 34.9677 38.599C34.9677 38.5374 34.9647 38.4767 34.9585 38.4153L46 32.895V23.9355ZM39.871 19.1867V20.2581C39.871 21.346 39.2832 22.3622 38.3369 22.9102L38.0305 23.0874L38.0328 25.0269L41.095 25.7918L34.3548 29.3394V27.6884C34.3548 26.8644 34.022 26.11 33.4771 25.5524L35.5806 25.0269V23.0858L35.2748 22.909C34.3291 22.3622 33.7419 21.3459 33.7419 20.2581V19.0323C33.7419 18.1964 34.0724 17.4147 34.6729 16.8327C35.273 16.2508 36.0691 15.9373 36.9013 15.9695C38.5386 16.0186 39.871 17.4619 39.871 19.1867ZM27.9241 28.8576L25.1496 27.9708C23.8852 27.5656 22.5166 27.5052 21.2223 27.7919L20.871 27.8697V27.6883C20.871 26.8433 21.444 26.1094 22.2635 25.9041L25.7742 25.0269V23.0858L25.4684 22.909C24.5226 22.3622 23.9355 21.3459 23.9355 20.2581V19.0323C23.9355 18.1964 24.2659 17.4147 24.8665 16.8327C25.4665 16.2508 26.2677 15.9373 27.0948 15.9695C28.7321 16.0186 30.0645 17.4619 30.0645 19.1867V20.2581C30.0645 21.346 29.4767 22.3622 28.5305 22.9102L28.224 23.0874L28.2263 25.0269L31.7365 25.9041C32.1344 26.0034 32.4877 26.233 32.7401 26.5563C32.9924 26.8796 33.1293 27.2781 33.129 27.6882V29.9848L32.9776 30.0645H32.602L28.8339 28.9877C28.537 28.9037 28.2312 28.8692 27.9241 28.8576ZM21.0083 17.1732C22.1593 14.943 24.476 13.5161 27 13.5161C29.5001 13.5161 31.8068 14.9239 32.9665 17.1238C32.6701 17.7163 32.5159 18.3698 32.5161 19.0323V20.2581C32.5161 21.661 33.2125 22.9775 34.3548 23.7747V24.0689L31.9032 24.6828L29.451 24.0689V23.7754C30.5933 22.9781 31.2903 21.661 31.2903 20.2581V19.1867C31.2903 16.8057 29.4246 14.8132 27.1317 14.7437C25.9585 14.7093 24.8525 15.1379 24.0127 15.9531C23.1723 16.7683 22.7097 17.8615 22.7097 19.0323V20.2581C22.7097 21.661 23.4061 22.9775 24.5484 23.7747V24.0689L22.0968 24.6828L19.6445 24.0689V23.7754C20.7868 22.9781 21.4839 21.661 21.4839 20.2581V19.1867C21.4839 18.4655 21.3103 17.7807 21.0083 17.1732ZM18.1895 13.4665L20.1477 11.5083L21.8711 12.6299L22.2009 12.4277C23.0272 11.9213 23.9202 11.5505 24.8548 11.327L25.2319 11.2366L25.6584 9.22581H28.3423L28.7675 11.236L29.1445 11.3261C30.0792 11.5499 30.9722 11.9207 31.7984 12.4271L32.1282 12.6293L33.8518 11.5077L35.8074 13.464L35.1122 15.0918C34.6391 15.2953 34.2003 15.5817 33.8185 15.9519C33.7933 15.9764 33.7717 16.0028 33.7472 16.0279C32.3034 13.7326 29.7506 12.2903 27 12.2903C24.2297 12.2903 21.6697 13.746 20.2293 16.0647C19.8439 15.6613 19.3854 15.3345 18.8773 15.1062L18.1895 13.4665ZM15.9677 25.0269V23.0858L15.6619 22.909C14.7162 22.3622 14.129 21.3459 14.129 20.2581V19.0323C14.129 18.1964 14.4595 17.4147 15.06 16.8327C15.6601 16.2508 16.4579 15.9373 17.2884 15.9695C18.9257 16.0186 20.2581 17.4619 20.2581 19.1867V20.2581C20.2581 21.346 19.6703 22.3622 18.724 22.9102L18.4176 23.0874L18.4199 25.0269L20.5229 25.5525C19.978 26.1099 19.6452 26.8644 19.6452 27.6882V28.1422L17.7334 28.5672L17.7831 28.3936L17.8065 27.2609L14.5741 25.3752L15.9677 25.0269ZM9.22581 23.9355H9.67261L14.0805 26.5065L11.8564 35.4028L9.22581 34.5257V23.9355ZM14.2284 36.1935L13.0221 35.7916L15.1828 27.1497L16.5806 27.9648V28.1398L14.2799 36.1935H14.2284ZM18.4194 37.958C18.4198 37.7759 18.4921 37.6012 18.6205 37.472L19.6979 36.3947C19.827 36.2663 20.0016 36.194 20.1838 36.1935C20.5627 36.1935 20.8709 36.5018 20.8709 36.8807C20.8705 37.0629 20.7982 37.2375 20.6698 37.3667L19.5924 38.4441C19.4632 38.5724 19.2887 38.6447 19.1066 38.6452C18.7276 38.6452 18.4194 38.3369 18.4194 37.958H18.4194ZM20.2581 39.7967C20.2585 39.6146 20.3308 39.4399 20.4592 39.3107L21.5366 38.2334C21.6658 38.105 21.8403 38.0327 22.0225 38.0323C22.4014 38.0323 22.7096 38.3405 22.7096 38.7194C22.7092 38.9016 22.6369 39.0762 22.5085 39.2054L21.4311 40.2828C21.3019 40.4111 21.1274 40.4834 20.9453 40.4839C20.5664 40.4839 20.2581 40.1757 20.2581 39.7967H20.2581ZM22.0968 41.6354C22.0972 41.4533 22.1695 41.2786 22.2979 41.1494L23.3753 40.0721C23.5045 39.9437 23.6791 39.8714 23.8612 39.871C24.2401 39.871 24.5483 40.1792 24.5483 40.5581C24.5479 40.7403 24.4756 40.9149 24.3472 41.0441L23.2698 42.1215C23.1406 42.2498 22.9661 42.3221 22.784 42.3226C22.4051 42.3226 22.0969 42.0144 22.0969 41.6354H22.0968ZM24.6226 44.1613C24.2437 44.1613 23.9355 43.8531 23.9355 43.4742C23.9359 43.292 24.0082 43.1173 24.1366 42.9881L25.214 41.9108C25.3432 41.7824 25.5178 41.7101 25.6999 41.7097C26.0788 41.7097 26.387 42.0179 26.387 42.3968C26.3866 42.579 26.3143 42.7536 26.1859 42.8829L25.1085 43.9602C24.9793 44.0885 24.8048 44.1608 24.6227 44.1613H24.6226ZM27.5865 44.7742H27.4732C27.3175 44.7744 27.1673 44.7174 27.0509 44.6141L26.5924 44.2098L27.0526 43.7495C27.217 43.5852 27.3445 43.3898 27.4388 43.18L27.996 43.6438C28.068 43.7038 28.1259 43.7789 28.1657 43.8638C28.2054 43.9486 28.2259 44.0412 28.2258 44.1349C28.2258 44.4875 27.9391 44.7742 27.5865 44.7742ZM33.0829 39.2581H32.977C32.8229 39.258 32.6736 39.2038 32.5554 39.1048L29.2317 36.3351L28.4464 37.2772L31.674 39.9664C31.7459 40.0265 31.8036 40.1016 31.8432 40.1865C31.8828 40.2713 31.9033 40.3639 31.9032 40.4575C31.9032 40.8101 31.6165 41.0968 31.264 41.0968H31.1302C30.9808 41.0966 30.8361 41.0441 30.7214 40.9483L27.3923 38.1744L26.6071 39.1165L29.8347 41.8061C29.9068 41.8658 29.9648 41.9407 30.0045 42.0254C30.0442 42.1101 30.0647 42.2026 30.0645 42.2962C30.0645 42.6488 29.7778 42.9355 29.4253 42.9355C29.1901 42.9355 28.9608 42.852 28.7803 42.702L27.4124 41.5618C27.111 40.9459 26.4918 40.5165 25.7668 40.4908C25.7314 39.491 24.9279 38.6873 23.9281 38.6521C23.8927 37.6523 23.0891 36.8486 22.0893 36.8133C22.0533 35.7901 21.2154 34.9677 20.1838 34.9677C19.6802 34.9677 19.1872 35.1718 18.8311 35.528L17.7538 36.6053C17.6895 36.6697 17.6361 36.7427 17.582 36.8151L15.6993 35.6854L17.3498 29.9089L21.4875 28.9889C22.5729 28.7462 23.7173 28.7989 24.7759 29.1377L25.6787 29.4265L22.6178 30.9569C21.9183 31.3074 21.4839 32.0109 21.4839 32.7933V32.9144C21.4839 34.0466 22.405 34.9677 23.5371 34.9677C23.9091 34.9677 24.2752 34.8666 24.5933 34.6748L26.8755 33.3062C27.334 33.0315 27.9493 33.0916 28.3452 33.4477L33.5237 38.1083C33.5923 38.1703 33.6471 38.2461 33.6847 38.3306C33.7223 38.4151 33.7418 38.5065 33.7419 38.599C33.7419 38.9627 33.4466 39.2581 33.0829 39.2581ZM44.7742 32.1373L34.4485 37.3005C34.4149 37.2649 34.3798 37.2308 34.3432 37.1982L29.1655 32.5377C28.7127 32.1288 28.1242 31.9026 27.5141 31.9032C27.0667 31.9033 26.6278 32.025 26.2443 32.2552L23.9612 33.6243C23.8332 33.7014 23.6865 33.7421 23.5371 33.7419C23.0805 33.7419 22.7097 33.3711 22.7097 32.9145V32.7932C22.7097 32.4776 22.8851 32.1944 23.167 32.0535L26.5858 30.344C27.1708 30.051 27.8655 29.9855 28.496 30.1669L32.3477 31.267L33.2805 31.2903L44.7742 25.241V32.1373Z" fill="white"/>
<defs>
<linearGradient id="paint0_linear_61_1196" x1="27" y1="0" x2="27" y2="54" gradientUnits="userSpaceOnUse">
<stop stop-color="#D9305B"/>
<stop offset="1" stop-color="#7E2784"/>
</linearGradient>
</defs>
</svg>
